<svg xmlns="http://www.w3.org/2000/svg" width="677" height="705" viewBox="0 0 677 705">
  <path id="Path_50213" data-name="Path 50213" d="M3574.085,1403.669l36.662,26.654a70.9,70.9,0,0,0,41.692,13.556h45.318a70.935,70.935,0,0,1,67.459,49.045l14,43.127a70.983,70.983,0,0,0,25.768,35.489l36.662,26.655a71,71,0,0,1,25.768,79.356l-14,43.129a71.026,71.026,0,0,0,0,43.866l14,43.129a71,71,0,0,1-25.768,79.355l-36.662,26.655a70.985,70.985,0,0,0-25.768,35.489l-14,43.127a70.935,70.935,0,0,1-67.459,49.046h-45.318a70.9,70.9,0,0,0-41.692,13.556l-36.662,26.654a70.894,70.894,0,0,1-83.385,0l-36.662-26.654a70.9,70.9,0,0,0-41.692-13.556h-45.317a70.932,70.932,0,0,1-67.459-49.046l-14-43.127a70.976,70.976,0,0,0-25.768-35.489l-36.662-26.655a71.006,71.006,0,0,1-25.768-79.355l14-43.129a71.023,71.023,0,0,0,0-43.866l-14-43.129a71.006,71.006,0,0,1,25.768-79.356l36.662-26.655a70.975,70.975,0,0,0,25.768-35.489l14-43.127a70.932,70.932,0,0,1,67.459-49.045h45.317a70.9,70.9,0,0,0,41.692-13.556l36.662-26.654A70.9,70.9,0,0,1,3574.085,1403.669Z" transform="translate(-3193.893 -1390.114)" fill="#fdba34"/>
</svg>
